
        <svg xmlns="http://www.w3.org/2000/svg" xmlns:xlink="http://www.w3.org/1999/xlink" version="1.1" width="3176.751315354758" height="1095.8581551995003" viewBox="0 0 3176.751315354758 1095.8581551995003">
			
			<g transform="scale(8.837565767737905) translate(10, 10)">
				<defs id="SvgjsDefs1749"><linearGradient id="SvgjsLinearGradient1758"><stop id="SvgjsStop1759" stop-color="#006838" offset="0"/><stop id="SvgjsStop1760" stop-color="#96cf24" offset="1"/></linearGradient><linearGradient id="SvgjsLinearGradient1761"><stop id="SvgjsStop1762" stop-color="#006838" offset="0"/><stop id="SvgjsStop1763" stop-color="#96cf24" offset="1"/></linearGradient></defs><g id="SvgjsG1750" featureKey="symbolContainer" transform="matrix(1,0,0,1,0,0)" fill="#000">    <path xmlns="http://www.w3.org/2000/svg" fill-rule="nonzero" d="             M0,0             H103             V104             H0,0             z             M4,4             v96             h95             v-96             z     "/></g><g id="SvgjsG1751" featureKey="monogramFeature-0" transform="matrix(1.7386986972418579,0,0,1.7386986972418579,13.035765776418915,-15.83607601197508)" fill="#000"><path d="M23.94 60.84 c-12 0 -21.66 -9.18 -21.66 -21.72 l0 -0.12 c0 -12.24 9.42 -21.84 22.14 -21.84 c8.58 0 14.1 3.6 17.82 8.76 l-8.76 6.78 c-2.4 -3 -5.16 -4.92 -9.18 -4.92 c-5.88 0 -10.02 4.98 -10.02 11.1 l0 0.12 c0 6.3 4.14 11.22 10.02 11.22 c4.38 0 6.96 -2.04 9.48 -5.1 l8.76 6.24 c-3.96 5.46 -9.3 9.48 -18.6 9.48 z"/></g><g id="SvgjsG1752" featureKey="nameFeature-0" transform="matrix(0.9853667711909826,0,0,0.9853667711909826,121.49928570080746,12.146332288090175)" fill="#000"><path d="M11.699 40.35156 c-5.8984 0 -10.176 -4.0625 -10.176 -10.195 c0 -6.1133 4.2773 -10.176 10.176 -10.176 c4.668 0 8.2422 2.4805 9.3164 6.8555 l-4.1797 0.54688 c-0.76172 -2.5 -2.6953 -3.7891 -5.1758 -3.7891 c-3.2813 0 -5.6445 2.5977 -5.6445 6.5625 s2.3633 6.5625 5.6445 6.5625 c2.4805 0 4.4141 -1.2695 5.1758 -3.7695 l4.1797 0.52734 c-1.0742 4.375 -4.7266 6.875 -9.3164 6.875 z M43.35975 29.844 l-0.058594 1.1328 l-14.941 0 c0.17578 3.9063 2.6953 5.7813 5.6836 5.7813 c2.1875 0 3.9648 -1.1133 4.8633 -3.0859 l4.1016 0.70313 c-1.3672 3.7891 -4.7656 5.9961 -8.9258 5.9961 c-6.0352 0 -10.137 -3.75 -10.137 -10.195 s4.1992 -10.215 10 -10.215 c5.4102 0 9.3945 3.1641 9.4141 9.8828 z M33.96475 23.301 c-2.7539 0 -4.7852 1.3281 -5.4102 4.3164 l10.293 0 c-0.35156 -2.9102 -2.2852 -4.3164 -4.8828 -4.3164 z M58.593937499999996 19.98 c4.3945 0 7.0703 2.4219 7.0703 6.7969 l0 13.223 l-4.5313 0 l0 -12.246 c0 -2.9688 -1.7969 -4.1016 -3.8672 -4.1016 c-2.4805 0 -4.6094 1.4063 -4.6289 5.0586 l0 11.289 l-4.4922 0 l0 -19.648 l4.4922 0 l0 2.3242 c1.3086 -1.6992 3.3984 -2.6953 5.957 -2.6953 z M78.43753125 40 c-3.5156 0 -5.625 -2.0703 -5.625 -5.7422 l0 -10.391 l-3.9258 0 l0 -3.5156 l1.3477 0 c2.0703 0 3.0273 -0.82031 3.0273 -3.3789 l0 -3.0469 l4.1016 0 l0 6.4258 l4.2773 0 l0 3.5156 l-4.2773 0 l0 9.9219 c0 1.8359 0.99609 2.7344 2.5 2.7344 l1.7773 0 l0 3.4766 l-3.2031 0 z M90.6054375 23.652 c0.95703 -1.9531 3.4766 -3.4961 6.3281 -3.5156 l0 4.1016 c-4.0039 0 -6.1523 1.4648 -6.1523 5.7422 l0 10.02 l-4.5117 0 l0 -19.648 l4.3359 0 l0 3.3008 z M105.1953125 40.37109 c-3.1836 0 -6.0547 -1.5234 -6.0547 -5.3516 c0 -4.1992 3.418 -5.5078 7.5195 -6.25 l2.9688 -0.54688 c1.2891 -0.25391 1.8164 -0.83984 1.8164 -1.7773 c0 -2.4219 -1.8945 -3.2227 -3.8477 -3.2227 c-2.1289 0 -3.8672 0.9375 -4.1602 3.457 l-4.043 -0.74219 c0.68359 -4.0625 3.6133 -5.9375 8.4766 -5.9375 c3.9258 0 7.8906 1.4063 7.8906 6.9336 l0 7.6172 c0 1.8555 0.48828 2.3828 1.8555 2.3828 l0.3125 0 l0 3.0664 l-2.1289 0 c-2.207 0 -3.5352 -0.78125 -3.9844 -2.5977 l-0.21484 0 c-1.5234 2.1484 -4.043 2.9688 -6.4063 2.9688 z M106.2500125 36.8359 c3.0859 0 5.4883 -2.2852 5.4883 -5.8789 l-5.0195 1.1133 c-2.0703 0.39063 -3.2227 1.0938 -3.2227 2.5781 c0 1.543 1.2109 2.1875 2.7539 2.1875 z M122.2851625 40 l0 -30 l4.5313 0 l0 30 l-4.5313 0 z M157.324625 20.352 l-9.5117 16.113 l9.375 0 l0 3.5352 l-15.918 0 l9.4531 -16.094 l-8.8086 0 l0 -3.5547 l15.41 0 z M170.3325 40.37109 c-5.9375 0 -10.332 -3.8477 -10.332 -10.215 c0 -6.3086 4.3555 -10.176 10.332 -10.176 c5.9961 0 10.352 3.8672 10.352 10.176 c0 6.3672 -4.375 10.215 -10.352 10.215 z M170.2925 36.7383 c3.418 0 5.918 -2.5977 5.918 -6.582 c0 -3.9648 -2.5 -6.5625 -5.918 -6.5625 c-3.3594 0 -5.8203 2.5977 -5.8203 6.5625 c0 3.9844 2.4609 6.582 5.8203 6.582 z M194.14109375 40.37109 c-5.9375 0 -10.332 -3.8477 -10.332 -10.215 c0 -6.3086 4.3555 -10.176 10.332 -10.176 c5.9961 0 10.352 3.8672 10.352 10.176 c0 6.3672 -4.375 10.215 -10.352 10.215 z M194.10109375 36.7383 c3.418 0 5.918 -2.5977 5.918 -6.582 c0 -3.9648 -2.5 -6.5625 -5.918 -6.5625 c-3.3594 0 -5.8203 2.5977 -5.8203 6.5625 c0 3.9844 2.4609 6.582 5.8203 6.582 z"/></g><g id="SvgjsG1753" featureKey="sloganFeature-0" transform="matrix(1,0,0,1,122.72000002861023,61.78000020980835)" fill="#000"><path d="M9.64 5.6 l3.28 12.48 l0.04 0 l3.14 -12.48 l1.4 0 l-3.78 14.4 l-1.5 0 l-3.34 -12.72 l-0.04 0 l-3.34 12.72 l-1.5 0 l-3.72 -14.4 l1.36 0 l3.1 12.48 l0.04 0 l3.34 -12.48 l1.52 0 z M21.240000000000002 20 l-1.36 0 l0 -14.4 l1.36 0 l0 14.4 z M34.040000000000006 20 l-9.08 0 l0 -14.4 l1.36 0 l0 13.24 l7.72 0 l0 1.16 z M41.00000000000001 20 l-4.92 0 l0 -14.4 l4.92 0 c1.6 0 3.1 0.1 4.44 1.08 c1.9 1.38 2.4 4.18 2.4 6.1 c0 1.9 -0.42 4.02 -1.74 5.46 c-1.32 1.48 -3.2 1.76 -5.1 1.76 z M37.440000000000005 6.76 l0 12.08 l3.26 0 c1.22 0 2.28 -0.08 3.38 -0.66 c1.92 -0.98 2.4 -3.44 2.4 -5.4 c0 -2.1 -0.46 -4.4 -2.48 -5.48 c-0.86 -0.46 -2.1 -0.54 -3.3 -0.54 l-3.26 0 z M59.60000000000001 20 l-9.08 0 l0 -14.4 l1.36 0 l0 13.24 l7.72 0 l0 1.16 z M63.48000000000001 20 l-1.36 0 l0 -14.4 l1.36 0 l0 14.4 z M68.42000000000002 20 l-1.36 0 l0 -14.4 l9.28 0 l0 1.16 l-7.92 0 l0 5.2 l7.2 0 l0 1.16 l-7.2 0 l0 6.88 z M88.10000000000002 20 l-9.78 0 l0 -14.4 l9.58 0 l0 1.16 l-8.22 0 l0 5.2 l7.42 0 l0 1.16 l-7.42 0 l0 5.72 l8.42 0 l0 1.16 z M107.72000000000001 9.78 l-1.4 0 c-0.56 -2.46 -2.08 -3.4 -4.54 -3.4 c-3.48 0 -4.98 2.98 -4.98 6.38 c0 3.22 1.18 6.46 5.1 6.46 c2.48 0 4.02 -1.68 4.56 -3.96 l1.42 0 c-0.64 2.78 -2.38 5.12 -6.24 5.12 c-4.44 0 -6.2 -3.5 -6.2 -7.58 c0 -5.5 2.88 -7.58 6.7 -7.58 c2.96 0 5.12 1.58 5.58 4.56 z M109.98000000000002 12.82 c-0.02 -4.2 2.34 -7.6 6.64 -7.6 c4.5 0 6.78 3.38 6.78 7.6 c0 4.14 -2.28 7.56 -6.72 7.56 s-6.7 -3.42 -6.7 -7.56 z M116.70000000000002 19.22 c3.74 0 5.34 -3.04 5.34 -6.4 c0 -4 -2.06 -6.44 -5.38 -6.44 c-3.7 0 -5.32 3.1 -5.32 6.44 c0 3.4 1.6 6.4 5.36 6.4 z M135.74 20 l-8.28 -12.56 l-0.04 0 l0 12.56 l-1.36 0 l0 -14.4 l1.54 0 l8.32 12.58 l0.04 0 l0 -12.58 l1.36 0 l0 14.4 l-1.58 0 z M150.18 20 l-8.28 -12.56 l-0.04 0 l0 12.56 l-1.36 0 l0 -14.4 l1.54 0 l8.32 12.58 l0.04 0 l0 -12.58 l1.36 0 l0 14.4 l-1.58 0 z M164.76000000000002 20 l-9.78 0 l0 -14.4 l9.58 0 l0 1.16 l-8.22 0 l0 5.2 l7.42 0 l0 1.16 l-7.42 0 l0 5.72 l8.42 0 l0 1.16 z M178.82000000000002 9.78 l-1.4 0 c-0.56 -2.46 -2.08 -3.4 -4.54 -3.4 c-3.48 0 -4.98 2.98 -4.98 6.38 c0 3.22 1.18 6.46 5.1 6.46 c2.48 0 4.02 -1.68 4.56 -3.96 l1.42 0 c-0.64 2.78 -2.38 5.12 -6.24 5.12 c-4.44 0 -6.2 -3.5 -6.2 -7.58 c0 -5.5 2.88 -7.58 6.7 -7.58 c2.96 0 5.12 1.58 5.58 4.56 z M180.34 6.76 l0 -1.16 l10.48 0 l0 1.16 l-4.56 0 l0 13.24 l-1.36 0 l0 -13.24 l-4.56 0 z M202.54000000000002 20 l-9.78 0 l0 -14.4 l9.58 0 l0 1.16 l-8.22 0 l0 5.2 l7.42 0 l0 1.16 l-7.42 0 l0 5.72 l8.42 0 l0 1.16 z M209.9 20 l-4.92 0 l0 -14.4 l4.92 0 c1.6 0 3.1 0.1 4.44 1.08 c1.9 1.38 2.4 4.18 2.4 6.1 c0 1.9 -0.42 4.02 -1.74 5.46 c-1.32 1.48 -3.2 1.76 -5.1 1.76 z M206.34 6.76 l0 12.08 l3.26 0 c1.22 0 2.28 -0.08 3.38 -0.66 c1.92 -0.98 2.4 -3.44 2.4 -5.4 c0 -2.1 -0.46 -4.4 -2.48 -5.48 c-0.86 -0.46 -2.1 -0.54 -3.3 -0.54 l-3.26 0 z"/></g>
			</g>
		</svg>
	